<svg width="420" height="400" viewBox="0 0 420 400" fill="none" xmlns="http://www.w3.org/2000/svg">
<rect width="420" height="400" rx="40" fill="#0891B2"/>
<path d="M136.025 251.031V288.141C136.025 292.698 137.124 296.279 139.321 298.883C141.519 301.487 144.285 302.789 147.622 302.789H162.515V311.578H147.988C142.129 311.578 137.205 309.503 133.218 305.353C129.23 301.202 127.236 295.465 127.236 288.141V251.031C127.236 244.114 126.097 237.807 123.818 232.11C121.621 226.414 118.651 221.734 114.907 218.072C111.164 214.41 106.851 211.603 101.968 209.649C97.1663 207.615 92.0801 206.598 86.709 206.598H76.9434V197.809H86.4648C92.9753 197.809 99.2008 199.029 105.142 201.471C111.082 203.912 116.331 207.371 120.889 211.847C125.527 216.323 129.189 221.979 131.875 228.814C134.642 235.569 136.025 242.975 136.025 251.031ZM118.447 251.031V288.141C118.447 298.232 121.296 306.126 126.992 311.822C132.689 317.519 139.688 320.367 147.988 320.367H162.515V329.156H148.232C137.572 329.156 128.457 325.453 120.889 318.048C113.402 310.642 109.658 300.673 109.658 288.141V251.031C109.658 242.405 107.542 235.772 103.311 231.134C99.0788 226.495 93.667 224.176 87.0752 224.176H76.9434V215.387H86.709C95.498 215.387 102.985 218.561 109.17 224.908C115.355 231.256 118.447 239.964 118.447 251.031ZM100.869 251.031V288.141C100.869 303.115 105.467 315.159 114.663 324.273C123.859 333.388 134.927 337.945 147.866 337.945H162.515V346.734H147.988C138.06 346.734 128.864 344.415 120.4 339.776C112.018 335.138 105.182 328.302 99.8926 319.269C94.6842 310.235 92.0801 299.859 92.0801 288.141V251.031C92.0801 247.369 91.5511 244.928 90.4932 243.707C89.4352 242.405 87.9297 241.754 85.9766 241.754H76.9434V232.965H86.3428C90.4932 232.965 93.9518 234.47 96.7188 237.481C99.4857 240.493 100.869 245.009 100.869 251.031ZM130.776 213.556L124.062 207.086C126.178 201.633 127.236 195.449 127.236 188.531V141.534C127.236 134.21 129.23 128.473 133.218 124.322C137.205 120.172 142.129 118.097 147.988 118.097H162.515V126.886H147.622C144.285 126.886 141.519 128.188 139.321 130.792C137.124 133.396 136.025 136.977 136.025 141.534V188.531C136.025 197.564 134.276 205.906 130.776 213.556ZM116.616 201.227L108.438 197.076C109.251 192.763 109.658 189.915 109.658 188.531V141.534C109.658 129.002 113.402 119.033 120.889 111.627C128.457 104.221 137.572 100.519 148.232 100.519H162.515V109.308H147.988C139.688 109.308 132.689 112.156 126.992 117.853C121.296 123.549 118.447 131.443 118.447 141.534V188.531C118.447 192.6 117.837 196.832 116.616 201.227ZM100.381 194.269L91.5918 193.292C91.9173 191.664 92.0801 190.077 92.0801 188.531V141.534C92.0801 129.815 94.6842 119.439 99.8926 110.406C105.182 101.373 112.018 94.5371 120.4 89.8984C128.864 85.2598 138.06 82.9404 147.988 82.9404H162.515V91.7295H147.866C134.927 91.7295 123.859 96.2868 114.663 105.401C105.467 114.516 100.869 126.56 100.869 141.534V188.531C100.869 190.81 100.706 192.722 100.381 194.269ZM319.619 235.406L328.408 236.383C328.083 238.01 327.92 239.597 327.92 241.144V288.141C327.92 299.859 325.275 310.235 319.985 319.269C314.777 328.302 307.941 335.138 299.478 339.776C291.095 344.415 281.94 346.734 272.012 346.734H257.485V337.945H272.134C285.073 337.945 296.141 333.388 305.337 324.273C314.533 315.159 319.131 303.115 319.131 288.141V241.144C319.131 238.865 319.294 236.952 319.619 235.406ZM303.384 228.448L311.562 232.599C310.749 236.912 310.342 239.76 310.342 241.144V288.141C310.342 300.673 306.558 310.642 298.989 318.048C291.502 325.453 282.428 329.156 271.768 329.156H257.485V320.367H272.012C280.312 320.367 287.311 317.519 293.008 311.822C298.704 306.126 301.553 298.232 301.553 288.141V241.144C301.553 237.075 302.163 232.843 303.384 228.448ZM289.224 216.119L295.938 222.589C293.822 228.041 292.764 234.226 292.764 241.144V288.141C292.764 295.465 290.77 301.202 286.782 305.353C282.795 309.503 277.871 311.578 272.012 311.578H257.485V302.789H272.378C275.715 302.789 278.481 301.487 280.679 298.883C282.876 296.279 283.975 292.698 283.975 288.141V241.144C283.975 232.11 285.724 223.769 289.224 216.119ZM319.131 178.644V141.534C319.131 126.56 314.533 114.516 305.337 105.401C296.141 96.2868 285.073 91.7295 272.134 91.7295H257.485V82.9404H272.012C281.94 82.9404 291.095 85.2598 299.478 89.8984C307.941 94.5371 314.777 101.373 319.985 110.406C325.275 119.439 327.92 129.815 327.92 141.534V178.644C327.92 182.306 328.449 184.788 329.507 186.09C330.565 187.311 332.07 187.921 334.023 187.921H343.057V196.71H333.657C329.507 196.71 326.048 195.204 323.281 192.193C320.514 189.182 319.131 184.666 319.131 178.644ZM301.553 178.644V141.534C301.553 131.443 298.704 123.549 293.008 117.853C287.311 112.156 280.312 109.308 272.012 109.308H257.485V100.519H271.768C282.428 100.519 291.502 104.221 298.989 111.627C306.558 119.033 310.342 129.002 310.342 141.534V178.644C310.342 187.27 312.458 193.902 316.689 198.541C320.921 203.18 326.333 205.499 332.925 205.499H343.057V214.288H333.291C324.502 214.288 317.015 211.114 310.83 204.767C304.645 198.419 301.553 189.711 301.553 178.644ZM283.975 178.644V141.534C283.975 136.977 282.876 133.396 280.679 130.792C278.481 128.188 275.715 126.886 272.378 126.886H257.485V118.097H272.012C277.871 118.097 282.795 120.172 286.782 124.322C290.77 128.473 292.764 134.21 292.764 141.534V178.644C292.764 185.561 293.862 191.868 296.06 197.564C298.338 203.261 301.349 207.94 305.093 211.603C308.836 215.265 313.109 218.113 317.91 220.147C322.793 222.101 327.92 223.077 333.291 223.077H343.057V231.866H333.535C327.025 231.866 320.799 230.646 314.858 228.204C308.918 225.763 303.628 222.304 298.989 217.828C294.432 213.352 290.77 207.737 288.003 200.982C285.317 194.146 283.975 186.7 283.975 178.644Z" fill="white"/>
</svg>
